<svg width="323" height="38" viewBox="0 0 323 38" fill="none" xmlns="http://www.w3.org/2000/svg">
<path d="M186.466 0H304C314.493 0 323 8.50659 323 19V19C323 29.4934 314.493 38 304 38H186.466V0Z" fill="#FF8625"/>
<path d="M0 19C0 8.50659 8.50659 0 19 0H247V38H19C8.50659 38 0 29.4934 0 19V19Z" fill="#1170DC"/>
<path d="M136.815 29.2386C135.588 29.2386 134.497 29.0284 133.543 28.608C132.594 28.1875 131.844 27.6023 131.293 26.8523C130.741 26.1023 130.449 25.2358 130.415 24.2528H133.619C133.648 24.7244 133.804 25.1364 134.088 25.4886C134.372 25.8352 134.75 26.1051 135.222 26.2983C135.693 26.4915 136.222 26.5881 136.807 26.5881C137.432 26.5881 137.986 26.4801 138.469 26.2642C138.952 26.0426 139.33 25.7358 139.602 25.3438C139.875 24.9517 140.009 24.5 140.003 23.9886C140.009 23.4602 139.872 22.9943 139.594 22.5909C139.315 22.1875 138.912 21.8722 138.384 21.6449C137.861 21.4176 137.23 21.304 136.491 21.304H134.949V18.8665H136.491C137.099 18.8665 137.631 18.7614 138.085 18.5511C138.545 18.3409 138.906 18.0455 139.168 17.6648C139.429 17.2784 139.557 16.8324 139.551 16.3267C139.557 15.8324 139.446 15.4034 139.219 15.0398C138.997 14.6705 138.682 14.3835 138.273 14.179C137.869 13.9744 137.395 13.8722 136.849 13.8722C136.315 13.8722 135.821 13.9687 135.366 14.1619C134.912 14.3551 134.545 14.6307 134.267 14.9886C133.989 15.3409 133.841 15.7614 133.824 16.25H130.781C130.804 15.2727 131.085 14.4148 131.625 13.6761C132.17 12.9318 132.898 12.3523 133.807 11.9375C134.716 11.517 135.736 11.3068 136.866 11.3068C138.031 11.3068 139.043 11.5256 139.901 11.9631C140.764 12.3949 141.432 12.9773 141.903 13.7102C142.375 14.4432 142.611 15.2528 142.611 16.1392C142.616 17.1222 142.327 17.946 141.741 18.6108C141.162 19.2756 140.401 19.7102 139.457 19.9148V20.0511C140.685 20.2216 141.625 20.6761 142.278 21.4148C142.938 22.1477 143.264 23.0597 143.259 24.1506C143.259 25.1278 142.98 26.0028 142.423 26.7756C141.872 27.5426 141.111 28.1449 140.139 28.5824C139.173 29.0199 138.065 29.2386 136.815 29.2386ZM151.916 29.3324C150.512 29.3324 149.308 28.9773 148.302 28.267C147.302 27.5511 146.532 26.5199 145.992 25.1733C145.458 23.821 145.191 22.1932 145.191 20.2898C145.197 18.3864 145.467 16.767 146.001 15.4318C146.541 14.0909 147.311 13.0682 148.311 12.3636C149.316 11.6591 150.518 11.3068 151.916 11.3068C153.313 11.3068 154.515 11.6591 155.521 12.3636C156.526 13.0682 157.296 14.0909 157.83 15.4318C158.37 16.7727 158.64 18.392 158.64 20.2898C158.64 22.1989 158.37 23.8295 157.83 25.1818C157.296 26.5284 156.526 27.5568 155.521 28.267C154.521 28.9773 153.319 29.3324 151.916 29.3324ZM151.916 26.6648C153.007 26.6648 153.867 26.1278 154.498 25.054C155.134 23.9744 155.453 22.3864 155.453 20.2898C155.453 18.9034 155.308 17.7386 155.018 16.7955C154.728 15.8523 154.319 15.142 153.791 14.6648C153.262 14.1818 152.637 13.9403 151.916 13.9403C150.83 13.9403 149.972 14.4801 149.342 15.5597C148.711 16.6335 148.393 18.2102 148.387 20.2898C148.382 21.6818 148.521 22.8523 148.805 23.8011C149.095 24.75 149.504 25.4659 150.032 25.9489C150.561 26.4261 151.188 26.6648 151.916 26.6648Z" fill="white"/>
<path d="M282.815 29.2386C281.588 29.2386 280.497 29.0284 279.543 28.608C278.594 28.1875 277.844 27.6023 277.293 26.8523C276.741 26.1023 276.449 25.2358 276.415 24.2528H279.619C279.648 24.7244 279.804 25.1364 280.088 25.4886C280.372 25.8352 280.75 26.1051 281.222 26.2983C281.693 26.4915 282.222 26.5881 282.807 26.5881C283.432 26.5881 283.986 26.4801 284.469 26.2642C284.952 26.0426 285.33 25.7358 285.602 25.3438C285.875 24.9517 286.009 24.5 286.003 23.9886C286.009 23.4602 285.872 22.9943 285.594 22.5909C285.315 22.1875 284.912 21.8722 284.384 21.6449C283.861 21.4176 283.23 21.304 282.491 21.304H280.949V18.8665H282.491C283.099 18.8665 283.631 18.7614 284.085 18.5511C284.545 18.3409 284.906 18.0455 285.168 17.6648C285.429 17.2784 285.557 16.8324 285.551 16.3267C285.557 15.8324 285.446 15.4034 285.219 15.0398C284.997 14.6705 284.682 14.3835 284.273 14.179C283.869 13.9744 283.395 13.8722 282.849 13.8722C282.315 13.8722 281.821 13.9687 281.366 14.1619C280.912 14.3551 280.545 14.6307 280.267 14.9886C279.989 15.3409 279.841 15.7614 279.824 16.25H276.781C276.804 15.2727 277.085 14.4148 277.625 13.6761C278.17 12.9318 278.898 12.3523 279.807 11.9375C280.716 11.517 281.736 11.3068 282.866 11.3068C284.031 11.3068 285.043 11.5256 285.901 11.9631C286.764 12.3949 287.432 12.9773 287.903 13.7102C288.375 14.4432 288.611 15.2528 288.611 16.1392C288.616 17.1222 288.327 17.946 287.741 18.6108C287.162 19.2756 286.401 19.7102 285.457 19.9148V20.0511C286.685 20.2216 287.625 20.6761 288.278 21.4148C288.938 22.1477 289.264 23.0597 289.259 24.1506C289.259 25.1278 288.98 26.0028 288.423 26.7756C287.872 27.5426 287.111 28.1449 286.139 28.5824C285.173 29.0199 284.065 29.2386 282.815 29.2386Z" fill="white"/>
</svg>
