<svg width="323" height="38" viewBox="0 0 323 38" fill="none" xmlns="http://www.w3.org/2000/svg">
<path d="M186.466 0H304C314.493 0 323 8.50659 323 19V19C323 29.4934 314.493 38 304 38H186.466V0Z" fill="#FF8625"/>
<path d="M0 19C0 8.50659 8.50659 0 19 0H220V38H19C8.50659 38 0 29.4934 0 19V19Z" fill="#1170DC"/>
<path d="M100.551 28V25.7159L106.611 19.7756C107.19 19.1903 107.673 18.6705 108.06 18.2159C108.446 17.7614 108.736 17.321 108.929 16.8949C109.122 16.4687 109.219 16.0142 109.219 15.5312C109.219 14.9801 109.094 14.5085 108.844 14.1165C108.594 13.7188 108.25 13.4119 107.812 13.196C107.375 12.9801 106.878 12.8722 106.321 12.8722C105.747 12.8722 105.244 12.9915 104.812 13.2301C104.381 13.4631 104.045 13.7955 103.807 14.2273C103.574 14.6591 103.457 15.1733 103.457 15.7699H100.449C100.449 14.6619 100.702 13.6989 101.207 12.8807C101.713 12.0625 102.409 11.429 103.295 10.9801C104.188 10.5312 105.21 10.3068 106.364 10.3068C107.534 10.3068 108.563 10.5256 109.449 10.9631C110.335 11.4006 111.023 12 111.511 12.7614C112.006 13.5227 112.253 14.392 112.253 15.3693C112.253 16.0227 112.128 16.6648 111.878 17.2955C111.628 17.9261 111.188 18.625 110.557 19.392C109.932 20.1591 109.054 21.0881 107.923 22.179L104.915 25.2386V25.358H112.517V28H100.551ZM114.047 24.7614V22.2472L121.453 10.5455H123.55V14.125H122.271L117.286 22.0256V22.1619H127.624V24.7614H114.047ZM122.374 28V23.9943L122.408 22.8693V10.5455H125.391V28H122.374Z" fill="white"/>
<path d="M272.619 29.2386C271.483 29.2386 270.466 29.0256 269.568 28.5994C268.67 28.1676 267.957 27.5767 267.429 26.8267C266.906 26.0767 266.628 25.2187 266.594 24.2528H269.662C269.719 24.9687 270.028 25.554 270.591 26.0085C271.153 26.4574 271.83 26.6818 272.619 26.6818C273.239 26.6818 273.79 26.5398 274.273 26.2557C274.756 25.9716 275.136 25.5767 275.415 25.071C275.693 24.5653 275.83 23.9886 275.824 23.3409C275.83 22.6818 275.69 22.0966 275.406 21.5852C275.122 21.0739 274.733 20.6733 274.239 20.3835C273.744 20.0881 273.176 19.9403 272.534 19.9403C272.011 19.9347 271.497 20.0312 270.991 20.2301C270.486 20.429 270.085 20.6903 269.79 21.0142L266.935 20.5455L267.847 11.5455H277.972V14.1875H270.463L269.96 18.8153H270.062C270.386 18.4347 270.844 18.1193 271.435 17.8693C272.026 17.6136 272.673 17.4858 273.378 17.4858C274.435 17.4858 275.378 17.7358 276.207 18.2358C277.037 18.7301 277.69 19.4119 278.168 20.2812C278.645 21.1506 278.884 22.1449 278.884 23.2642C278.884 24.4176 278.616 25.446 278.082 26.3494C277.554 27.2472 276.818 27.9545 275.875 28.4716C274.938 28.983 273.852 29.2386 272.619 29.2386Z" fill="white"/>
</svg>
