<svg width="323" height="38" viewBox="0 0 323 38" fill="none" xmlns="http://www.w3.org/2000/svg">
<path d="M186.466 0H304C314.493 0 323 8.50659 323 19V19C323 29.4934 314.493 38 304 38H186.466V0Z" fill="#FF8625"/>
<path d="M0 19C0 8.50659 8.50659 0 19 0H215V38H19C8.50659 38 0 29.4934 0 19V19Z" fill="#1170DC"/>
<path d="M96.5511 29V26.7159L102.611 20.7756C103.19 20.1903 103.673 19.6705 104.06 19.2159C104.446 18.7614 104.736 18.321 104.929 17.8949C105.122 17.4687 105.219 17.0142 105.219 16.5312C105.219 15.9801 105.094 15.5085 104.844 15.1165C104.594 14.7188 104.25 14.4119 103.812 14.196C103.375 13.9801 102.878 13.8722 102.321 13.8722C101.747 13.8722 101.244 13.9915 100.812 14.2301C100.381 14.4631 100.045 14.7955 99.8068 15.2273C99.5739 15.6591 99.4574 16.1733 99.4574 16.7699H96.4489C96.4489 15.6619 96.7017 14.6989 97.2074 13.8807C97.7131 13.0625 98.4091 12.429 99.2955 11.9801C100.188 11.5312 101.21 11.3068 102.364 11.3068C103.534 11.3068 104.563 11.5256 105.449 11.9631C106.335 12.4006 107.023 13 107.511 13.7614C108.006 14.5227 108.253 15.392 108.253 16.3693C108.253 17.0227 108.128 17.6648 107.878 18.2955C107.628 18.9261 107.188 19.625 106.557 20.392C105.932 21.1591 105.054 22.0881 103.923 23.179L100.915 26.2386V26.358H108.517V29H96.5511ZM110.737 29V26.7159L116.797 20.7756C117.377 20.1903 117.86 19.6705 118.246 19.2159C118.632 18.7614 118.922 18.321 119.115 17.8949C119.308 17.4687 119.405 17.0142 119.405 16.5312C119.405 15.9801 119.28 15.5085 119.03 15.1165C118.78 14.7188 118.436 14.4119 117.999 14.196C117.561 13.9801 117.064 13.8722 116.507 13.8722C115.933 13.8722 115.431 13.9915 114.999 14.2301C114.567 14.4631 114.232 14.7955 113.993 15.2273C113.76 15.6591 113.644 16.1733 113.644 16.7699H110.635C110.635 15.6619 110.888 14.6989 111.394 13.8807C111.899 13.0625 112.595 12.429 113.482 11.9801C114.374 11.5312 115.396 11.3068 116.55 11.3068C117.72 11.3068 118.749 11.5256 119.635 11.9631C120.521 12.4006 121.209 13 121.698 13.7614C122.192 14.5227 122.439 15.392 122.439 16.3693C122.439 17.0227 122.314 17.6648 122.064 18.2955C121.814 18.9261 121.374 19.625 120.743 20.392C120.118 21.1591 119.24 22.0881 118.11 23.179L115.101 26.2386V26.358H122.703V29H110.737Z" fill="white"/>
<path d="M268.756 28.2386C267.489 28.2386 266.364 28.0256 265.381 27.5994C264.403 27.1733 263.636 26.5909 263.08 25.8523C262.528 25.108 262.256 24.2642 262.261 23.321C262.256 22.5881 262.415 21.9148 262.739 21.3011C263.063 20.6875 263.5 20.1761 264.051 19.767C264.608 19.3523 265.227 19.0881 265.909 18.9744V18.8551C265.011 18.6562 264.284 18.1989 263.727 17.483C263.176 16.7614 262.903 15.929 262.909 14.9858C262.903 14.0881 263.153 13.2869 263.659 12.5824C264.165 11.8778 264.858 11.3239 265.739 10.9205C266.619 10.5114 267.625 10.3068 268.756 10.3068C269.875 10.3068 270.872 10.5114 271.747 10.9205C272.628 11.3239 273.321 11.8778 273.827 12.5824C274.338 13.2869 274.594 14.0881 274.594 14.9858C274.594 15.929 274.312 16.7614 273.75 17.483C273.193 18.1989 272.474 18.6562 271.594 18.8551V18.9744C272.276 19.0881 272.889 19.3523 273.435 19.767C273.986 20.1761 274.423 20.6875 274.747 21.3011C275.077 21.9148 275.241 22.5881 275.241 23.321C275.241 24.2642 274.963 25.108 274.406 25.8523C273.849 26.5909 273.082 27.1733 272.105 27.5994C271.134 28.0256 270.017 28.2386 268.756 28.2386ZM268.756 25.8011C269.409 25.8011 269.977 25.6903 270.46 25.4688C270.943 25.2415 271.318 24.9233 271.585 24.5142C271.852 24.1051 271.989 23.6335 271.994 23.0994C271.989 22.5426 271.844 22.0511 271.56 21.625C271.281 21.1932 270.898 20.8551 270.409 20.6108C269.926 20.3665 269.375 20.2443 268.756 20.2443C268.131 20.2443 267.574 20.3665 267.085 20.6108C266.597 20.8551 266.21 21.1932 265.926 21.625C265.648 22.0511 265.511 22.5426 265.517 23.0994C265.511 23.6335 265.642 24.1051 265.909 24.5142C266.176 24.9176 266.551 25.233 267.034 25.4602C267.523 25.6875 268.097 25.8011 268.756 25.8011ZM268.756 17.8494C269.29 17.8494 269.761 17.7415 270.17 17.5256C270.585 17.3097 270.912 17.0085 271.151 16.6222C271.389 16.2358 271.511 15.7898 271.517 15.2841C271.511 14.7841 271.392 14.3466 271.159 13.9716C270.926 13.5909 270.602 13.2983 270.188 13.0938C269.773 12.8835 269.295 12.7784 268.756 12.7784C268.205 12.7784 267.719 12.8835 267.298 13.0938C266.884 13.2983 266.56 13.5909 266.327 13.9716C266.099 14.3466 265.989 14.7841 265.994 15.2841C265.989 15.7898 266.102 16.2358 266.335 16.6222C266.574 17.0028 266.901 17.304 267.315 17.5256C267.736 17.7415 268.216 17.8494 268.756 17.8494Z" fill="white"/>
</svg>
