<svg width="323" height="38" viewBox="0 0 323 38" fill="none" xmlns="http://www.w3.org/2000/svg">
<path d="M186.466 0H304C314.493 0 323 8.50659 323 19V19C323 29.4934 314.493 38 304 38H186.466V0Z" fill="#FF8625"/>
<path d="M0 19C0 8.50659 8.50659 0 19 0H270.973V38H19C8.50659 38 0 29.4934 0 19V19Z" fill="#1170DC"/>
<path d="M137.551 28V25.7159L143.611 19.7756C144.19 19.1903 144.673 18.6705 145.06 18.2159C145.446 17.7614 145.736 17.321 145.929 16.8949C146.122 16.4687 146.219 16.0142 146.219 15.5312C146.219 14.9801 146.094 14.5085 145.844 14.1165C145.594 13.7188 145.25 13.4119 144.812 13.196C144.375 12.9801 143.878 12.8722 143.321 12.8722C142.747 12.8722 142.244 12.9915 141.812 13.2301C141.381 13.4631 141.045 13.7955 140.807 14.2273C140.574 14.6591 140.457 15.1733 140.457 15.7699H137.449C137.449 14.6619 137.702 13.6989 138.207 12.8807C138.713 12.0625 139.409 11.429 140.295 10.9801C141.188 10.5312 142.21 10.3068 143.364 10.3068C144.534 10.3068 145.563 10.5256 146.449 10.9631C147.335 11.4006 148.023 12 148.511 12.7614C149.006 13.5227 149.253 14.392 149.253 15.3693C149.253 16.0227 149.128 16.6648 148.878 17.2955C148.628 17.9261 148.188 18.625 147.557 19.392C146.932 20.1591 146.054 21.0881 144.923 22.179L141.915 25.2386V25.358H149.517V28H137.551ZM157.797 10.3068C158.632 10.3125 159.445 10.4602 160.235 10.75C161.03 11.0341 161.746 11.5 162.382 12.1477C163.019 12.7898 163.524 13.6506 163.899 14.7301C164.274 15.8097 164.462 17.1449 164.462 18.7358C164.468 20.2358 164.308 21.5767 163.985 22.7585C163.666 23.9347 163.209 24.929 162.612 25.7415C162.016 26.554 161.297 27.1733 160.456 27.5994C159.615 28.0256 158.669 28.2386 157.618 28.2386C156.516 28.2386 155.539 28.0227 154.686 27.5909C153.84 27.1591 153.155 26.5682 152.632 25.8182C152.11 25.0682 151.789 24.2102 151.669 23.2443H154.78C154.939 23.9375 155.263 24.4886 155.752 24.8977C156.246 25.3011 156.868 25.5028 157.618 25.5028C158.828 25.5028 159.76 24.9773 160.414 23.9261C161.067 22.875 161.394 21.4148 161.394 19.5455H161.274C160.996 20.0455 160.635 20.4773 160.192 20.8409C159.749 21.1989 159.246 21.4744 158.683 21.6676C158.127 21.8608 157.536 21.9574 156.911 21.9574C155.888 21.9574 154.967 21.7131 154.149 21.2244C153.337 20.7358 152.692 20.0653 152.215 19.2131C151.743 18.3608 151.504 17.3864 151.499 16.2898C151.499 15.1534 151.76 14.1335 152.283 13.2301C152.811 12.321 153.547 11.6051 154.49 11.0824C155.433 10.554 156.536 10.2955 157.797 10.3068ZM157.806 12.8636C157.192 12.8636 156.638 13.0142 156.144 13.3153C155.655 13.6108 155.269 14.0142 154.985 14.5256C154.706 15.0312 154.567 15.5966 154.567 16.2216C154.573 16.8409 154.712 17.4034 154.985 17.9091C155.263 18.4148 155.641 18.8153 156.118 19.1108C156.601 19.4062 157.152 19.554 157.771 19.554C158.232 19.554 158.661 19.4659 159.058 19.2898C159.456 19.1136 159.803 18.8693 160.098 18.5568C160.399 18.2386 160.632 17.8778 160.797 17.4744C160.968 17.071 161.05 16.6449 161.044 16.196C161.044 15.5994 160.902 15.0483 160.618 14.5426C160.34 14.0369 159.956 13.6307 159.467 13.3239C158.985 13.017 158.431 12.8636 157.806 12.8636Z" fill="white"/>
<path d="M296.003 28.3324C294.599 28.3324 293.395 27.9773 292.389 27.267C291.389 26.5511 290.619 25.5199 290.08 24.1733C289.545 22.821 289.278 21.1932 289.278 19.2898C289.284 17.3864 289.554 15.767 290.088 14.4318C290.628 13.0909 291.398 12.0682 292.398 11.3636C293.403 10.6591 294.605 10.3068 296.003 10.3068C297.401 10.3068 298.602 10.6591 299.608 11.3636C300.614 12.0682 301.384 13.0909 301.918 14.4318C302.457 15.7727 302.727 17.392 302.727 19.2898C302.727 21.1989 302.457 22.8295 301.918 24.1818C301.384 25.5284 300.614 26.5568 299.608 27.267C298.608 27.9773 297.406 28.3324 296.003 28.3324ZM296.003 25.6648C297.094 25.6648 297.955 25.1278 298.585 24.054C299.222 22.9744 299.54 21.3864 299.54 19.2898C299.54 17.9034 299.395 16.7386 299.105 15.7955C298.815 14.8523 298.406 14.142 297.878 13.6648C297.349 13.1818 296.724 12.9403 296.003 12.9403C294.918 12.9403 294.06 13.4801 293.429 14.5597C292.798 15.6335 292.48 17.2102 292.474 19.2898C292.469 20.6818 292.608 21.8523 292.892 22.8011C293.182 23.75 293.591 24.4659 294.119 24.9489C294.648 25.4261 295.276 25.6648 296.003 25.6648Z" fill="white"/>
</svg>
